<?xml version="1.0" standalone="no"?>
<!DOCTYPE svg PUBLIC "-//W3C//DTD SVG 20010904//EN"
 "http://www.w3.org/TR/2001/REC-SVG-20010904/DTD/svg10.dtd">
<svg version="1.0" xmlns="http://www.w3.org/2000/svg"
 width="512.000000pt" height="512.000000pt" viewBox="0 0 512.000000 512.000000"
 preserveAspectRatio="xMidYMid meet">
<metadata>
Created by potrace 1.14, written by Peter Selinger 2001-2017
</metadata>
<g transform="translate(0.000000,512.000000) scale(0.100000,-0.100000)"
fill="#000000" stroke="none">
<path d="M615 5109 c-55 -9 -165 -48 -217 -77 -199 -109 -332 -285 -382 -507
-14 -63 -15 -272 -13 -2025 l2 -1955 27 -80 c69 -202 226 -359 433 -432 l80
-28 1995 -2 c1924 -2 1998 -1 2067 17 138 36 255 108 346 213 75 86 115 164
155 298 3 13 8 913 10 1999 3 2175 6 2060 -58 2191 -93 192 -222 305 -430 375
-53 18 -131 19 -2010 20 -1075 1 -1978 -2 -2005 -7z m2381 -1298 c14 -36 129
-342 154 -411 56 -152 341 -916 350 -935 5 -11 59 -155 120 -320 61 -165 115
-309 120 -320 14 -30 191 -509 193 -520 3 -14 -801 -15 -812 -1 -8 10 -93 280
-111 352 -4 18 -10 37 -14 43 -10 16 -896 16 -896 -1 0 -20 -112 -382 -122
-393 -6 -6 -154 -10 -404 -10 -349 0 -394 1 -388 15 22 57 276 731 393 1045
79 209 147 389 151 400 5 11 91 238 191 505 99 267 189 503 199 525 l18 41
426 0 c375 0 426 -2 432 -15z"/>
<path d="M2492 2978 c-71 -236 -133 -439 -180 -590 l-39 -128 277 0 278 0 -50
163 c-27 89 -65 214 -84 277 -20 63 -46 149 -58 190 -24 78 -64 212 -72 243
-3 9 -9 17 -12 17 -4 0 -31 -78 -60 -172z"/>
</g>
</svg>
